<svg width="1200" height="630" viewBox="0 0 1200 630" fill="none" xmlns="http://www.w3.org/2000/svg">
  <defs>
    <linearGradient id="bg" x1="0" y1="0" x2="1200" y2="630" gradientUnits="userSpaceOnUse">
      <stop stop-color="#070A12" />
      <stop offset="1" stop-color="#101827" />
    </linearGradient>
    <linearGradient id="signal" x1="144" y1="128" x2="1024" y2="510" gradientUnits="userSpaceOnUse">
      <stop stop-color="#7CA7FF" />
      <stop offset="1" stop-color="#6EE7E0" />
    </linearGradient>
    <pattern id="grid" width="40" height="40" patternUnits="userSpaceOnUse">
      <path d="M40 0H0V40" stroke="#7CA7FF" stroke-opacity="0.08" />
    </pattern>
  </defs>
  <rect width="1200" height="630" fill="url(#bg)" />
  <rect width="1200" height="630" fill="url(#grid)" />
  <rect x="72" y="72" width="1056" height="486" stroke="#7CA7FF" stroke-opacity="0.35" stroke-width="2" />
  <rect x="104" y="104" width="74" height="74" fill="#111B2D" stroke="#7CA7FF" stroke-width="2" />
  <text x="141" y="151" text-anchor="middle" font-family="ui-monospace, SFMono-Regular, Menlo, monospace" font-size="24" font-weight="800" fill="#7CA7FF">A/</text>
  <text x="208" y="145" font-family="ui-monospace, SFMono-Regular, Menlo, monospace" font-size="22" font-weight="800" letter-spacing="6" fill="#E8EDF7">AI AUTOMATED SYSTEMS</text>
  <text x="104" y="284" font-family="Arial, Helvetica, sans-serif" font-size="64" font-weight="800" fill="#F5F7FB">AI Systems That Ship —</text>
  <text x="104" y="356" font-family="Arial, Helvetica, sans-serif" font-size="64" font-weight="800" fill="#F5F7FB">And Stay Running</text>
  <text x="104" y="420" font-family="Arial, Helvetica, sans-serif" font-size="26" fill="#AEB9CC">Governed automation with clear ownership, audit trails, and measurable outcomes.</text>
  <rect x="104" y="478" width="420" height="4" fill="url(#signal)" />
  <circle cx="1004" cy="309" r="86" stroke="url(#signal)" stroke-width="2" />
  <circle cx="1004" cy="309" r="52" stroke="#7CA7FF" stroke-opacity="0.55" stroke-width="2" />
  <circle cx="1004" cy="309" r="12" fill="#6EE7E0" />
  <path d="M870 309H918M1090 309H1138M1004 175V223M1004 395V443" stroke="#7CA7FF" stroke-width="2" />
</svg>
